<svg width="413" height="335" viewBox="0 0 413 335" fill="none" xmlns="http://www.w3.org/2000/svg">
<g clip-path="url(#clip0_1072_446)">
<path d="M30.7539 62.0869C31.8467 62.6565 32.9448 62.6642 34.1465 62.6893C35.753 62.1908 36.9092 61.5794 37.7547 60.0632C38.4974 58.7313 38.678 57.0379 38.1974 55.5855C37.7322 54.1794 36.7405 53.0511 35.3798 52.4533C34.4421 52.0416 33.4644 51.997 32.4571 52.0465C30.758 52.4717 29.3801 53.1437 28.4542 54.7023C27.7516 55.8845 27.5983 57.3073 27.9412 58.6311C28.3257 60.1135 29.4036 61.3821 30.7539 62.0869Z" fill="#F9AB50"/>
<path d="M257.118 23.5842C257.157 23.7663 257.205 23.9462 257.262 24.1237C257.32 24.3007 257.387 24.4745 257.462 24.6451C257.538 24.8153 257.623 24.9812 257.716 25.1428C258.455 26.4045 259.687 27.2196 261.099 27.5459C262.131 27.7841 263.038 27.6933 264.059 27.4703C265.839 26.4869 267.02 25.4426 267.613 23.4409C267.737 23.0233 267.831 22.5971 267.924 22.1714C267.325 20.2978 266.609 18.5154 264.723 17.5855C263.381 16.9247 262.148 16.9449 260.693 17.0668C259.04 17.9761 257.841 18.9619 257.256 20.8257C257.199 21.0031 257.152 21.1831 257.114 21.3656C257.075 21.5482 257.047 21.7322 257.028 21.9176C257.009 22.1028 257 22.2887 257 22.475C257 22.6614 257.01 22.8473 257.03 23.0328C257.05 23.2178 257.079 23.4018 257.118 23.5842Z" fill="#F9AB50"/>
<path d="M388.342 143.628C389 145.037 390.266 146.028 391.726 146.509C392.789 146.859 393.779 146.848 394.883 146.765C396.542 146.122 397.808 145.386 398.594 143.704C398.67 143.538 398.738 143.368 398.797 143.194C398.856 143.021 398.906 142.845 398.946 142.667C398.987 142.488 399.019 142.308 399.041 142.126C399.063 141.944 399.076 141.762 399.08 141.579C399.083 141.396 399.077 141.213 399.062 141.03C399.046 140.848 399.021 140.667 398.987 140.487C398.954 140.307 398.911 140.129 398.858 139.953C398.806 139.778 398.745 139.606 398.675 139.436C398.045 137.877 396.753 136.692 395.18 136.121C394.184 135.76 393.246 135.782 392.205 135.852C390.442 136.615 389.124 137.499 388.342 139.332C387.761 140.694 387.709 142.275 388.342 143.628Z" fill="#F9AB50"/>
<path d="M97.3489 334.655C96.1528 334.355 94.9332 334.737 93.702 334.355C93.4063 334.021 93.101 333.739 92.7608 333.45L92.5137 333.405L92.1432 333.72C91.0859 333.534 90.1625 332.738 89.2918 332.141C85.4084 329.477 82.5229 326.708 79.438 323.173C77.042 322.869 73.4009 323.676 71.4136 322.122C70.5775 322.203 69.7064 322.349 69.1188 323.023C67.7613 324.579 68.6805 328.38 68.8419 330.247C69.1215 329.65 69.2487 329.43 69.9045 329.232C70.0205 329.197 70.1382 329.167 70.2574 329.144C70.3767 329.122 70.4969 329.105 70.6179 329.095C70.7388 329.085 70.8598 329.081 70.9812 329.084C71.1026 329.086 71.2234 329.095 71.344 329.111C71.4644 329.127 71.5837 329.149 71.7018 329.177C71.8199 329.205 71.9359 329.24 72.0502 329.28C72.1647 329.321 72.2766 329.368 72.3859 329.421C72.4953 329.473 72.6014 329.532 72.7045 329.596C73.1451 329.872 73.5528 330.256 73.7011 330.766C73.7986 331.103 73.6292 331.222 73.471 331.503C72.0551 332.141 70.4938 331.857 68.9834 331.767C68.9496 332.406 69.0441 332.625 68.5927 333.101C68.2326 333.211 19.3536 333.226 16.4001 332.945C13.117 333.006 9.83368 333.05 6.55016 333.076C4.93508 333.077 3.17118 332.904 1.57845 333.072C1.06552 333.126 0.614313 333.253 0.21458 333.589C-0.0749805 333.833 0.0209095 333.786 0 334.214C0.760818 334.994 2.25823 334.832 3.27054 334.846C15.8612 335.01 28.4701 334.817 41.062 334.791L92.6173 334.878C93.595 334.309 96.1095 334.696 97.3489 334.655Z" fill="url(#paint0_linear_1072_446)"/>
<path d="M73.4728 331.505C73.631 331.223 73.8005 331.104 73.703 330.767C73.5546 330.257 73.1469 329.873 72.7064 329.597C72.6033 329.533 72.497 329.474 72.3877 329.422C72.2784 329.369 72.1664 329.323 72.052 329.282C71.9378 329.241 71.8217 329.206 71.7036 329.178C71.5855 329.15 71.4662 329.128 71.3458 329.112C71.2254 329.097 71.1044 329.087 70.983 329.085C70.8616 329.082 70.7406 329.086 70.6198 329.096C70.4988 329.106 70.3785 329.123 70.2593 329.146C70.14 329.169 70.0223 329.198 69.9064 329.234C69.2506 329.432 69.1234 329.651 68.8438 330.248L68.9854 331.768C70.4958 331.858 72.0569 332.142 73.4728 331.505Z" fill="#04104C"/>
<path d="M50.2604 138.054C50.2632 132.031 49.8789 126.007 49.8942 119.978C49.3997 119.938 48.9039 119.892 48.4143 119.811C46.8095 119.544 45.4265 118.591 44.5144 117.244C43.6473 115.965 43.2044 114.288 43.5214 112.756C43.7749 111.531 44.5409 110.532 45.6094 109.897C49.0846 107.83 49.1081 110.903 51.0671 111.361C51.8722 110.376 52.5766 109.038 53.5291 108.22C54.3909 107.48 55.4864 106.882 56.4325 106.248C58.5762 104.814 60.0915 103.419 61.7719 101.45C64.5216 101.881 68.3097 102.652 70.7084 104.119C73.2769 105.689 72.2309 108.345 72.8311 110.835C72.8459 110.896 72.8633 110.958 72.8791 111.019C74.9221 108.525 75.8706 105.437 75.6077 102.217C75.5915 102.013 75.5702 101.809 75.5438 101.606C75.5174 101.403 75.4858 101.201 75.4489 100.999C75.4123 100.798 75.3708 100.598 75.3239 100.398C75.2772 100.199 75.2254 100.001 75.1687 99.8041C75.1118 99.6075 75.0501 99.4123 74.9836 99.2183C74.9171 99.0248 74.8456 98.8329 74.7691 98.643C74.693 98.4529 74.612 98.2651 74.526 98.0793C74.4404 97.8931 74.3499 97.7095 74.2549 97.5281C74.1599 97.3468 74.0604 97.1679 73.9564 96.9914C73.8524 96.8152 73.744 96.6416 73.631 96.4704C73.5183 96.2995 73.4012 96.1318 73.2798 95.967C73.1584 95.8019 73.0331 95.6401 72.9036 95.4814C72.7741 95.3225 72.6407 95.1672 72.5036 95.0152C72.3663 94.8632 72.2252 94.715 72.0806 94.5702C71.9358 94.4254 71.7876 94.2842 71.6356 94.1468C71.4836 94.0095 71.3284 93.8762 71.17 93.7468C68.6872 91.6872 65.9592 90.8173 62.8274 90.2874C63.7426 87.5224 63.9322 84.6252 62.5159 81.9609C61.4609 79.9762 59.5356 78.5242 57.4004 77.876C57.2601 77.8329 57.1189 77.7934 56.9764 77.7578C56.8344 77.7222 56.6913 77.69 56.5471 77.6616C56.4032 77.6335 56.2587 77.6093 56.1134 77.5888C55.9683 77.5682 55.8227 77.5513 55.6764 77.5385C55.5302 77.5256 55.3839 77.5164 55.2373 77.5111C55.0908 77.506 54.944 77.5046 54.7972 77.507C54.6507 77.5098 54.5044 77.5161 54.358 77.5264C54.2115 77.5366 54.0655 77.5504 53.9202 77.5682C53.7745 77.5862 53.6295 77.6078 53.485 77.6333C53.3405 77.6587 53.1969 77.6882 53.054 77.7215C52.9111 77.7545 52.769 77.7913 52.6278 77.8321C52.4869 77.8726 52.3472 77.9167 52.2085 77.9647C52.0701 78.0128 51.9328 78.0642 51.7968 78.1193C51.6608 78.1744 51.5263 78.2331 51.3936 78.2951C51.2608 78.3574 51.1297 78.4231 51.0002 78.4919C50.8707 78.5611 50.7432 78.6337 50.6176 78.7095C48.744 79.8185 47.3232 81.6188 46.8236 83.7513C46.3328 85.8483 46.8317 88.1759 48.0332 89.9489C48.115 90.0693 48.1995 90.1876 48.2827 90.3067C44.3417 92.0103 41.2464 94.1353 39.6473 98.3121C37.8327 103.053 38.4301 109.118 39.1201 114.026C34.9467 115.405 31.6393 117.735 29.6523 121.766C28.1315 124.851 28.0754 128.535 29.2289 131.755C30.2319 134.556 32.2682 136.716 34.9563 137.967C36.01 138.458 37.0515 138.68 38.1866 138.871C40.6419 138.481 43.1156 138.344 45.5988 138.306C47.1516 138.309 48.7114 138.161 50.2604 138.054Z" fill="#04104C"/>
<path d="M70.7113 104.119C68.3126 102.652 64.5245 101.881 61.7749 101.45C60.0946 103.419 58.5792 104.813 56.4354 106.248C55.4892 106.882 54.3937 107.48 53.532 108.22C52.5794 109.038 51.8751 110.376 51.0701 111.361C49.111 110.904 49.0877 107.83 45.6124 109.897C44.5438 110.532 43.778 111.531 43.5243 112.756C43.2074 114.287 43.6502 115.965 44.5173 117.245C45.4294 118.591 46.8126 119.544 48.4173 119.811C48.9069 119.892 49.4026 119.938 49.8971 119.978C49.8818 126.007 50.2661 132.031 50.2634 138.054C48.7143 138.161 47.1545 138.309 45.6014 138.306C45.3636 142.204 44.9811 145.497 47.769 148.711C49.8435 151.103 52.7307 152.379 55.8653 152.544C58.9899 152.709 62.2115 151.882 64.5454 149.709C64.6695 149.595 64.7907 149.477 64.9091 149.357C65.0275 149.237 65.1427 149.114 65.2548 148.987C65.3668 148.861 65.4757 148.732 65.5811 148.601C65.687 148.469 65.7892 148.335 65.8881 148.198C65.987 148.061 66.0824 147.922 66.1739 147.781C66.2659 147.639 66.3542 147.495 66.4387 147.349C66.5235 147.203 66.6044 147.055 66.6814 146.905C66.7587 146.755 66.8321 146.603 66.9016 146.45C66.9711 146.296 67.0367 146.14 67.0984 145.983C67.1602 145.826 67.218 145.668 67.2719 145.508C67.3256 145.348 67.3753 145.186 67.4211 145.024C67.4667 144.862 67.5082 144.698 67.5457 144.534C67.5832 144.369 67.6164 144.204 67.6455 144.037C67.675 143.871 67.6999 143.704 67.7207 143.537C67.7413 143.369 67.7579 143.202 67.7701 143.034C67.7824 142.865 67.7905 142.697 67.7943 142.528C67.8232 141.096 67.6784 139.629 67.5808 138.199C66.5195 138.061 65.411 138.159 64.3388 138.086C63.7535 138.045 63.5976 138.14 63.2002 137.691C59.8562 134.96 56.2249 133.397 53.3746 129.975C56.6605 131.77 59.3573 132.622 63.1214 132.602C64.973 132.35 66.3184 131.865 67.7384 130.612C71.8142 127.017 73.494 120.241 73.7394 115.041C73.2458 113.764 73.3721 112.334 72.8813 111.019C72.8656 110.957 72.848 110.896 72.8333 110.834C72.2339 108.345 73.28 105.689 70.7113 104.119Z" fill="#F3A17D"/>
<path d="M53.3711 129.976C56.2214 133.398 59.8528 134.96 63.1967 137.692L63.118 132.603C59.3538 132.622 56.6571 131.771 53.3711 129.976Z" fill="#F67455"/>
<path d="M67.7342 130.613C66.3142 131.866 64.9688 132.351 63.1172 132.603L63.1959 137.692C63.5933 138.141 63.7492 138.046 64.3345 138.086C65.4067 138.16 66.5152 138.061 67.5765 138.2C69.719 138.456 71.9733 138.278 74.1255 138.173C75.4786 137.816 76.8268 137.363 78.0499 136.673C80.5762 135.248 82.2619 132.816 82.9838 130.029C85.356 120.872 76.3637 119.802 73.8653 115.283C73.8207 115.203 73.7784 115.122 73.7353 115.042C73.4899 120.242 71.8099 127.018 67.7342 130.613Z" fill="#04104C"/>
<path d="M412.556 243.529C412.548 242.764 412.53 241.998 412.502 241.232C412.475 240.467 412.438 239.702 412.392 238.938C412.346 238.173 412.29 237.409 412.225 236.646C412.16 235.883 412.086 235.12 412.002 234.359C411.919 233.597 411.826 232.837 411.723 232.078C411.62 231.319 411.509 230.561 411.388 229.805C411.267 229.049 411.136 228.294 410.997 227.541C410.857 226.788 410.708 226.036 410.55 225.287C410.392 224.537 410.224 223.79 410.048 223.044C409.871 222.299 409.686 221.556 409.491 220.815C409.296 220.074 409.092 219.336 408.879 218.6C408.666 217.865 408.444 217.132 408.213 216.401C402.55 198.131 389.034 178.94 371.865 169.955C374.722 180.593 374.079 192.271 368.524 202.004C366.659 205.272 364.282 208.162 361.652 210.838C368.897 211.037 376.16 210.701 383.409 210.735C383.383 214.697 383.372 218.66 383.376 222.623C383.38 226.586 383.398 230.549 383.431 234.511L383.432 235.864C383.422 243.761 383.083 251.824 383.429 259.706L383.422 261.057L383.438 285.422L383.402 286.705C383.388 294.65 383.487 302.611 383.351 310.554L383.849 311.549C385.688 309.434 387.727 307.498 389.594 305.406C394.468 299.944 398.526 294.233 401.97 287.775C402.324 287.096 402.67 286.412 403.007 285.724C403.345 285.037 403.674 284.345 403.994 283.65C404.315 282.954 404.626 282.254 404.93 281.551C405.233 280.848 405.528 280.141 405.813 279.43C406.099 278.719 406.376 278.006 406.645 277.288C406.913 276.571 407.172 275.85 407.423 275.126C407.674 274.402 407.915 273.675 408.148 272.946C408.38 272.216 408.604 271.483 408.819 270.748C409.033 270.013 409.239 269.275 409.436 268.535C409.632 267.794 409.819 267.052 409.998 266.307C410.176 265.562 410.345 264.815 410.505 264.065C410.665 263.317 410.815 262.566 410.957 261.813C411.098 261.06 411.23 260.306 411.353 259.55C411.476 258.794 411.59 258.036 411.694 257.277C411.798 256.518 411.893 255.758 411.978 254.997C412.064 254.236 412.14 253.474 412.207 252.711C412.273 251.948 412.331 251.184 412.379 250.419C412.427 249.655 412.465 248.89 412.494 248.125C412.523 247.359 412.543 246.594 412.553 245.828C412.564 245.061 412.565 244.295 412.556 243.529Z" fill="#B2D9F7"/>
<path d="M68.5941 333.102C69.0455 332.626 68.9511 332.407 68.9848 331.768L68.8432 330.247C68.6818 328.381 67.7625 324.579 69.1201 323.024C69.7075 322.35 70.5787 322.204 71.4149 322.123C71.5062 319.761 71.2445 317.263 71.1951 314.884L68.2845 314.976C68.3623 293.19 66.6457 271.301 65.8032 249.53C60.3483 249.338 54.8326 249.535 49.3719 249.553C44.9397 249.568 40.1888 250.007 35.9358 248.57L35.7007 248.589C30.2278 248.985 21.1845 247.606 16.2651 249.027C14.1824 249.629 12.4652 250.764 11.0347 252.376C9.96183 253.585 9.04167 255.084 8.7723 256.699C8.28431 259.625 8.53955 262.944 8.5322 265.915L8.50494 282.956L8.48029 308.403C8.47856 312.849 8.25692 317.429 8.56897 321.856C8.81325 325.321 10.1356 327.976 12.7773 330.254C13.9258 331.243 15.2163 332.015 16.402 332.946C19.3548 333.227 68.2341 333.212 68.5941 333.102Z" fill="#44BBDB"/>
<path d="M351.432 210.735L332.055 210.712L327.281 210.705C318.825 210.811 310.37 210.848 301.914 210.818C301.905 221.99 301.77 233.177 301.888 244.349C311.463 247.057 319.226 252.276 325.652 259.85C332.672 259.57 339.73 259.685 346.756 259.691L383.429 259.705C383.083 251.823 383.422 243.76 383.432 235.863L305.49 235.95C304.275 235.957 302.906 236.046 301.997 235.147L302.068 234.643C304.798 234.217 307.869 234.478 310.644 234.478L326.375 234.481L383.431 234.511C383.398 230.548 383.38 226.585 383.376 222.622C383.373 218.66 383.383 214.697 383.409 210.734C376.16 210.7 368.897 211.036 361.653 210.837C358.303 210.587 354.794 210.744 351.432 210.735Z" fill="#3455B4"/>
<path d="M325.648 259.85L326.731 261.121C345.61 260.717 364.535 261.049 383.419 261.057L383.426 259.705L346.752 259.691C339.726 259.686 332.669 259.571 325.648 259.85Z" fill="#04104C"/>
<path d="M310.643 234.478C307.867 234.478 304.797 234.218 302.067 234.644L301.996 235.148C302.905 236.046 304.274 235.957 305.489 235.951L383.431 235.864L383.43 234.511L326.374 234.481L310.643 234.478Z" fill="#04104C"/>
<path d="M326.734 261.121C332.104 268.296 335.436 276.342 336.128 285.338L383.439 285.421L383.423 261.056C364.539 261.049 345.613 260.717 326.734 261.121Z" fill="#3455B4"/>
<path d="M336.2 286.737C351.927 286.417 367.674 286.882 383.403 286.705L383.44 285.421L336.129 285.339L336.2 286.737Z" fill="#04104C"/>
<path d="M353.615 74.2334L353.449 74.3279C353.429 74.4285 353.406 74.528 353.375 74.6249L353.615 74.2334Z" fill="#FBC76F"/>
<path d="M349.542 87.0227C349.97 86.8392 350.385 86.6303 350.786 86.3955C351.575 85.1598 352.285 83.8975 351.983 82.3741C351.782 81.3565 351.018 80.5068 350.138 80.0007C349.359 79.5548 348.538 79.2078 347.675 78.96C347.655 81.5542 347.352 84.5996 347.792 87.1363C348.403 87.399 348.933 87.2776 349.542 87.0227Z" fill="#F9AB50"/>
<path d="M46.5023 220.269C45.9922 219.959 45.8397 219.645 45.6686 219.099L45.9688 218.571C46.8624 217.898 47.9647 217.831 49.0422 217.651C46.8494 217.382 29.5929 213.956 28.6817 212.947C32.4271 213.175 36.4103 214.401 40.0648 215.235C44.0197 216.138 48.224 217.408 52.259 217.804C55.3084 218.104 58.381 217.874 61.4387 217.86C63.438 217.85 65.4658 218.034 67.4586 217.869C68.6687 217.768 69.3745 217.515 70.0087 216.427C71.6252 213.653 71.7029 209.031 72.169 205.855C73.1304 199.137 74.1639 192.43 75.2698 185.734C75.7454 182.809 76.043 179.711 76.7974 176.853C77.0846 175.765 77.5063 174.541 78.2906 173.703C80.036 171.839 85.2621 172.531 87.7283 172.52C86.861 166.655 85.9508 160.796 84.9979 154.944C84.5516 152.301 83.8894 149.649 83.5321 146.997C83.4764 146.585 83.4952 146.387 83.6661 146.011C83.6495 145.936 83.6418 145.857 83.6153 145.785C82.2839 142.166 77.4029 139.661 74.1273 138.173C71.9749 138.278 69.7206 138.456 67.5783 138.2C67.6758 139.629 67.8205 141.096 67.7918 142.528C67.7879 142.697 67.7799 142.866 67.7676 143.034C67.7554 143.202 67.7388 143.37 67.7182 143.537C67.6975 143.705 67.6724 143.872 67.643 144.038C67.6139 144.204 67.5807 144.369 67.5432 144.534C67.5057 144.698 67.4642 144.862 67.4186 145.024C67.3728 145.187 67.323 145.348 67.2694 145.508C67.2155 145.668 67.1576 145.827 67.0959 145.984C67.0342 146.141 66.9686 146.296 66.8991 146.45C66.8296 146.604 66.7562 146.755 66.6789 146.905C66.6019 147.055 66.521 147.203 66.4362 147.349C66.3517 147.495 66.2634 147.639 66.1714 147.781C66.0797 147.922 65.9844 148.061 65.8856 148.198C65.7867 148.335 65.6843 148.469 65.5786 148.601C65.473 148.732 65.3643 148.861 65.2523 148.988C65.1402 149.114 65.025 149.237 64.9066 149.357C64.7882 149.478 64.6671 149.595 64.5429 149.709C62.209 151.883 58.9873 152.709 55.8627 152.544C52.7282 152.379 49.841 151.103 47.7664 148.711C44.9786 145.497 45.361 142.204 45.5989 138.307C43.1157 138.344 40.6421 138.482 38.1867 138.871C33.9014 140.503 30.5539 142.019 27.4662 145.558C25.3908 147.938 23.8993 151.306 22.4136 154.092C19.8074 159.004 17.2269 163.93 14.6719 168.869L6.61679 184.352C5.0219 187.393 3.22267 190.351 1.82808 193.49C0.513087 196.45 0.0637508 198.635 1.28761 201.782C2.37807 204.586 4.26599 206.517 7.05503 207.717C10.5166 209.206 14.7189 209.725 18.3975 210.552C21.8006 211.317 25.1687 212.229 28.5689 212.994C28.2439 216.031 27.6299 219.515 26.6216 222.417C30.2209 222.396 46.0637 222.303 48.5235 221.156C47.86 220.905 47.107 220.636 46.5023 220.269ZM50.7305 205.621C52.0566 204.217 55.7976 203.848 57.6553 203.571C57.7201 203.564 57.7848 203.554 57.85 203.551C60.2698 203.413 62.989 204.246 64.8135 205.845C66.4808 207.305 67.3901 209.391 67.5258 211.584C67.6598 213.75 67.1644 216.027 65.685 217.671C65.1451 217.478 65.1398 217.18 64.8944 216.689C64.172 216.512 62.3141 217.348 61.4398 217.533C59.2156 216.399 58.5059 214.573 57.5182 212.414C55.6824 211.286 50.6747 209.269 50.2966 206.897C50.2178 206.4 50.3917 205.98 50.7305 205.621ZM24.6252 195.078L21.9474 194.005C24.435 190.177 27.1429 186.01 30.3853 182.781L30.5719 182.905C30.5836 184.372 30.2572 185.913 30.1228 187.384C29.8415 190.586 29.5847 193.789 29.3524 196.995C27.7664 196.381 26.1907 195.742 24.6252 195.078Z" fill="#7B89DE"/>
<path d="M30.1208 187.384C30.2552 185.913 30.5815 184.372 30.5698 182.905L30.3832 182.781C27.1408 186.01 24.433 190.177 21.9453 194.005L24.6232 195.078C26.1886 195.742 27.7644 196.381 29.3503 196.995C29.5825 193.789 29.8394 190.586 30.1208 187.384Z" fill="#F9FBFD"/>
<path d="M57.5177 212.415C58.5053 214.574 59.2151 216.399 61.4393 217.533C62.3136 217.348 64.1715 216.512 64.8938 216.689C65.1393 217.18 65.1448 217.478 65.6845 217.671C67.1639 216.027 67.6592 213.75 67.5253 211.584C67.3896 209.391 66.4801 207.305 64.8129 205.845C62.9883 204.246 60.2692 203.413 57.8495 203.551C57.7843 203.555 57.7196 203.565 57.6548 203.571C55.7969 203.848 52.0561 204.217 50.73 205.621C50.3911 205.98 50.2171 206.401 50.2963 206.897C50.6742 209.269 55.6818 211.286 57.5177 212.415Z" fill="#F9AB50"/>
<path d="M83.534 146.997C83.8913 149.648 84.5535 152.3 84.9998 154.944C85.9529 160.796 86.8629 166.654 87.7302 172.519C85.2642 172.53 80.0379 171.839 78.2925 173.703C77.508 174.541 77.0864 175.765 76.7993 176.853C76.045 179.71 75.7475 182.809 75.2717 185.734C74.166 192.43 73.1323 199.137 72.1709 205.855C71.7047 209.03 71.627 213.653 70.0106 216.426C69.3763 217.515 68.6705 217.768 67.4605 217.869C65.4678 218.034 63.44 217.849 61.4406 217.859C58.3829 217.874 55.3105 218.104 52.2609 217.804C48.2259 217.407 44.0217 216.138 40.0667 215.235C36.4122 214.401 32.429 213.174 28.6836 212.947C29.5948 213.956 46.8514 217.381 49.0441 217.65C47.9666 217.83 46.8643 217.898 45.9707 218.57L45.6705 219.099C45.8418 219.645 45.9941 219.958 46.5043 220.269C47.1089 220.636 47.8618 220.904 48.5248 221.155C60.0708 220.748 71.7079 220.893 83.2538 221.241C89.7022 221.215 96.1518 221.051 102.599 221.075C109.585 221.134 116.575 220.895 123.559 221.06C122.608 219.335 121.968 217.78 122.536 215.79C122.864 214.641 123.61 213.643 124.689 213.104C126.204 212.348 127.633 212.597 129.176 213.088C129.16 210.576 129.238 208.031 129.544 205.536C130.005 201.791 134.604 175.594 133.865 173.935C133.489 173.09 132.772 172.774 131.98 172.42C129.178 172.613 126.316 172.506 123.506 172.498L103.621 172.5L88.3602 172.479C87.5736 165.767 86.4709 158.917 85.1934 152.275C84.7874 150.165 84.0048 148.129 83.6677 146.011C83.4971 146.387 83.4782 146.585 83.534 146.997ZM101.437 193.65C101.699 192.403 102.36 191.834 103.368 191.129C103.847 191.105 104.342 191.072 104.82 191.113C105.663 191.185 106.57 191.754 107.072 192.421C107.591 193.112 107.75 193.969 107.583 194.808C107.331 196.086 106.441 196.786 105.422 197.488C104.925 197.584 104.367 197.692 103.862 197.623C103.768 197.61 103.675 197.593 103.583 197.572C103.491 197.55 103.4 197.524 103.311 197.493C103.221 197.463 103.134 197.428 103.048 197.388C102.961 197.349 102.877 197.306 102.795 197.258C102.714 197.211 102.634 197.159 102.557 197.104C102.481 197.048 102.407 196.989 102.336 196.927C102.265 196.864 102.197 196.798 102.133 196.729C102.068 196.66 102.007 196.588 101.95 196.512C101.335 195.695 101.231 194.631 101.437 193.65Z" fill="#04104C"/>
<path d="M102.132 196.729C102.196 196.798 102.264 196.864 102.335 196.927C102.406 196.99 102.48 197.049 102.556 197.104C102.633 197.159 102.712 197.211 102.794 197.258C102.876 197.306 102.96 197.349 103.046 197.389C103.132 197.428 103.22 197.463 103.31 197.493C103.399 197.524 103.49 197.55 103.582 197.572C103.674 197.593 103.767 197.611 103.861 197.623C104.366 197.692 104.924 197.585 105.421 197.488C106.44 196.787 107.329 196.087 107.582 194.809C107.748 193.969 107.59 193.112 107.071 192.422C106.569 191.754 105.661 191.185 104.819 191.113C104.341 191.072 103.846 191.106 103.367 191.129C102.359 191.834 101.698 192.403 101.436 193.65C101.23 194.631 101.334 195.696 101.949 196.512C102.006 196.588 102.067 196.66 102.132 196.729Z" fill="#F9FBFD"/>
<path d="M129.174 213.089C127.631 212.598 126.203 212.348 124.687 213.105C123.608 213.643 122.862 214.642 122.534 215.791C121.966 217.781 122.606 219.336 123.557 221.061L123.748 221.187C124.563 221.396 125.553 221.588 126.395 221.536C127.66 221.456 128.35 220.712 129.161 219.825C129.582 217.604 129.337 215.325 129.174 213.089Z" fill="#F9AB50"/>
<path d="M88.3566 172.479L103.617 172.5C102.422 170.625 100.892 168.966 99.689 167.081C97.0682 163.833 94.8171 160.308 92.3833 156.922C89.6812 153.164 86.7046 149.499 83.6641 146.011C84.0012 148.129 84.7838 150.165 85.1897 152.275C86.4672 158.917 87.5698 165.767 88.3566 172.479Z" fill="#7B89DE"/>
<path d="M359.505 311.132C349.549 311.093 339.532 310.726 329.586 311.056C322.585 322.014 311.868 329.352 299.117 332.104C296.949 332.566 294.761 332.89 292.553 333.074C291.262 333.212 289.965 333.326 288.666 333.31C275.811 333.155 263.425 326.714 254.632 317.643C246.642 317.731 238.639 317.55 230.648 317.531L179.989 317.477L151.01 317.476C145.946 317.475 140.707 317.736 135.662 317.358C134.246 317.252 132.913 317.008 131.863 315.978C130.421 314.565 129.708 311.909 129.489 309.935C129.087 306.303 129.321 302.488 129.336 298.83L129.37 280.079L129.159 219.825C128.348 220.712 127.658 221.456 126.393 221.536C125.551 221.589 124.561 221.396 123.746 221.187C123.751 230.087 123.404 239.153 123.8 248.035C123.313 250.994 123.611 254.35 123.616 257.359L123.652 274.955L123.695 303.226C123.707 308.669 123.384 314.41 124.073 319.812C124.445 322.736 125.731 326.054 127.442 328.469C128.692 330.233 130.26 331.719 131.809 333.216C126.396 333.22 120.956 333.314 115.546 333.161C112.719 331.147 109.554 329.605 106.894 327.357C105.702 326.349 103.751 323.046 102.641 322.607C101.329 322.884 99.7192 322.776 98.3796 322.724C97.1094 322.674 95.3886 322.719 94.4774 321.731C93.622 321.799 92.9355 321.948 92.3606 322.64C90.9447 324.343 91.6368 327.629 91.9224 329.649C91.9552 329.882 91.9322 329.794 91.9956 329.97C92.1066 329.676 92.0971 329.439 92.4092 329.306C93.6809 328.764 96.1505 329.085 97.5287 329.114C97.5485 330.432 97.6695 331.644 97.9104 332.94C96.3478 332.8 94.7035 332.676 93.1478 332.914C92.9748 333.1 92.8548 333.212 92.7586 333.451C93.0989 333.739 93.404 334.021 93.6998 334.355C94.931 334.737 96.1506 334.356 97.3467 334.655C96.1074 334.696 93.5928 334.309 92.6151 334.879L307.999 334.773L377.079 334.79C387.717 334.812 398.388 335.126 409.021 334.944C409.818 334.93 410.777 334.964 411.481 334.565C411.67 334.043 411.713 333.991 411.569 333.462C410.317 332.722 387.001 333.069 383.649 333.047C383.631 329.068 383.103 314.284 383.846 311.548C383.388 311.274 382.922 311.191 382.395 311.165C374.835 310.791 367.085 311.161 359.505 311.132Z" fill="url(#paint1_linear_1072_446)"/>
<path d="M92.763 333.451C92.8592 333.212 92.9791 333.1 93.1522 332.914C94.708 332.676 96.3523 332.799 97.9148 332.94C97.6738 331.644 97.553 330.432 97.5331 329.114C96.1549 329.085 93.6852 328.764 92.4136 329.306C92.1017 329.439 92.111 329.676 92 329.97C92.1403 331.123 92.2671 332.27 92.5157 333.406L92.763 333.451Z" fill="#04104C"/>
<path d="M381.941 309.875C377.966 309.326 371.024 309.713 366.808 309.708L330.254 309.872L329.59 311.056C339.536 310.725 349.553 311.093 359.508 311.131C367.089 311.161 374.839 310.791 382.399 311.165C382.925 311.191 383.392 311.274 383.85 311.549L383.351 310.553C382.907 310.213 382.502 309.953 381.941 309.875Z" fill="#04104C"/>
<path d="M336.198 286.736C336.13 295.198 334.398 302.461 330.254 309.872L366.808 309.708C371.024 309.713 377.966 309.326 381.941 309.875C382.502 309.953 382.907 310.213 383.351 310.553C383.487 302.61 383.388 294.649 383.402 286.704C367.673 286.882 351.926 286.417 336.198 286.736Z" fill="#3455B4"/>
<path d="M122.321 248.517C119.578 248.603 116.792 248.49 114.047 248.423L105.269 314.914L103.259 314.738C102.862 317.242 102.003 320.101 102.645 322.608C103.755 323.047 105.706 326.35 106.899 327.358C109.558 329.606 112.723 331.148 115.55 333.162C120.96 333.315 126.4 333.221 131.813 333.217C130.265 331.719 128.696 330.234 127.446 328.47C125.735 326.055 124.45 322.737 124.077 319.813C123.388 314.411 123.712 308.67 123.699 303.227L123.656 274.956L123.62 257.36C123.615 254.351 123.317 250.995 123.804 248.036C123.331 248.535 122.996 248.496 122.321 248.517Z" fill="#44BBDB"/>
<path d="M94.2529 314.679C97.2536 314.715 100.254 314.734 103.255 314.738L105.266 314.914L114.043 248.424C114.669 244.681 115.171 241.075 114.394 237.311C112.921 230.176 108.578 224.959 102.595 221.077C96.148 221.052 89.6984 221.217 83.25 221.243C90.1686 225.142 94.6363 228.002 96.9267 236.088C97.2168 237.089 97.4275 238.107 97.5587 239.141C97.69 240.176 97.7403 241.214 97.7097 242.256C97.6207 246.293 96.7985 250.346 96.0995 254.315C94.0089 266.188 90.5718 278.02 89.1648 289.98C90.151 297.789 89.9397 307.105 91.2866 314.633L94.2529 314.679Z" fill="#142E8D"/>
<path d="M103.26 314.737C100.259 314.734 97.2584 314.714 94.2578 314.679C94.3742 316.945 94.7474 319.487 94.4826 321.731C95.3939 322.72 97.1145 322.674 98.3849 322.724C99.7244 322.777 101.334 322.885 102.646 322.607C102.004 320.101 102.863 317.242 103.26 314.737Z" fill="#F9AB50"/>
<path d="M102.598 221.076C108.58 224.958 112.924 230.176 114.397 237.31C115.173 241.075 114.672 244.68 114.046 248.423C116.791 248.489 119.576 248.602 122.32 248.516C122.995 248.495 123.329 248.534 123.803 248.035C123.407 239.153 123.754 230.087 123.749 221.187L123.558 221.061C116.573 220.896 109.584 221.135 102.598 221.076Z" fill="#F9FBFD"/>
<path d="M49.3705 249.553C54.8312 249.535 60.3469 249.338 65.8018 249.53C66.6442 271.301 68.3608 293.19 68.2831 314.976L71.1937 314.884C74.3588 314.881 77.5625 314.784 80.7208 314.973C81.9034 315.086 83.1155 315.096 84.3034 315.147C84.7754 311.246 87.9401 292.752 89.1668 289.979C90.5738 278.019 94.0109 266.187 96.1016 254.315C96.8005 250.345 97.6228 246.292 97.7117 242.255C97.7423 241.213 97.692 240.175 97.5608 239.141C97.4295 238.106 97.2188 237.088 96.9287 236.087C94.6385 228.001 90.1706 225.141 83.252 221.242C71.7061 220.894 60.069 220.749 48.523 221.156C46.0632 222.303 30.2204 222.396 26.6211 222.417C24.7124 229.032 24.7088 235.216 28.1234 241.4C28.3405 241.794 28.5729 242.179 28.8211 242.554C29.0693 242.93 29.3321 243.294 29.61 243.648C29.8879 244.002 30.1796 244.344 30.4852 244.674C30.7909 245.004 31.1094 245.321 31.4408 245.626C31.7722 245.93 32.1156 246.22 32.4707 246.497C32.8259 246.773 33.1915 247.034 33.5675 247.281C33.9439 247.528 34.3297 247.758 34.7246 247.974C35.1199 248.189 35.5231 248.388 35.9344 248.57C40.1872 250.007 44.9381 249.568 49.3705 249.553Z" fill="#3455B4"/>
<path d="M71.1953 314.884C71.2448 317.264 71.5064 319.761 71.4151 322.123C73.4024 323.677 77.0435 322.87 79.4394 323.173C79.9628 320.46 80.5528 317.736 80.7224 314.973C77.5641 314.784 74.3604 314.881 71.1953 314.884Z" fill="#F9AB50"/>
<path d="M94.2547 314.678L91.2883 314.631C89.9416 307.104 90.1528 297.787 89.1665 289.979C87.9397 292.751 84.775 311.246 84.3031 315.147C83.115 315.095 81.9031 315.086 80.7205 314.973C80.551 317.736 79.9608 320.459 79.4375 323.173C82.5226 326.708 85.408 329.477 89.2914 332.141C90.1621 332.738 91.0854 333.535 92.1427 333.72L92.5132 333.406C92.2646 332.27 92.1378 331.123 91.9975 329.97C91.934 329.794 91.9571 329.882 91.9242 329.649C91.6388 327.629 90.9465 324.343 92.3625 322.64C92.9374 321.948 93.6238 321.799 94.4792 321.73C94.7441 319.486 94.3711 316.944 94.2547 314.678Z" fill="#44BBDB"/>
<path d="M294.916 330.576C308.713 324.772 317.564 322.221 323.999 307.528C330.351 293.027 330.608 280.912 322.733 266.856C320.748 263.312 318.511 259.599 315.434 256.888C313.953 255.581 312.258 254.348 310.612 253.259C308.134 251.62 297.827 245.932 296.993 243.803L297.481 243.607C290.746 242.179 284.012 243.133 277.301 244.056C275.212 244.604 273.178 245.4 271.197 246.255C268.652 247.372 266.09 248.444 263.731 249.929C256.182 254.686 249.716 262.762 246.462 271.044C242.169 281.968 242.146 294.739 246.855 305.553C248.753 309.912 251.574 314.008 254.632 317.643C263.425 326.714 275.81 333.155 288.665 333.311C289.964 333.327 291.261 333.212 292.552 333.075C291.928 333.009 291.508 333.075 291.008 332.669C291.703 331.661 293.804 331.045 294.916 330.576ZM280.01 325.709C270.502 323.556 261.064 317.098 255.909 308.781C250.504 300.06 248.522 289.678 250.907 279.676C253.251 269.846 258.906 261.31 267.568 255.992C267.841 255.824 268.116 255.659 268.393 255.498C268.67 255.336 268.949 255.178 269.23 255.023C269.511 254.868 269.794 254.717 270.079 254.569C270.364 254.422 270.65 254.277 270.938 254.136C271.227 253.996 271.517 253.859 271.808 253.725C272.1 253.591 272.393 253.461 272.688 253.335C272.983 253.208 273.279 253.085 273.577 252.966C273.875 252.847 274.174 252.731 274.474 252.619C274.775 252.507 275.077 252.399 275.38 252.294C275.683 252.19 275.988 252.089 276.294 251.992C276.6 251.895 276.907 251.801 277.215 251.712C277.522 251.622 277.831 251.536 278.142 251.454C278.452 251.372 278.763 251.294 279.075 251.22C279.387 251.145 279.7 251.074 280.013 251.008C280.327 250.941 280.642 250.878 280.957 250.819C281.272 250.76 281.588 250.704 281.905 250.653C282.222 250.602 282.539 250.554 282.857 250.51C283.175 250.467 283.493 250.427 283.812 250.391C284.131 250.356 284.45 250.324 284.769 250.296C285.089 250.267 285.409 250.243 285.729 250.223C286.049 250.203 286.369 250.186 286.69 250.174C287.01 250.162 287.331 250.153 287.652 250.148C287.973 250.144 288.293 250.143 288.614 250.147C288.935 250.15 289.256 250.157 289.576 250.168C289.897 250.179 290.217 250.194 290.538 250.214C290.858 250.233 291.178 250.255 291.497 250.282C291.817 250.309 292.136 250.34 292.455 250.374C292.774 250.409 293.093 250.447 293.411 250.49C293.729 250.532 294.046 250.578 294.363 250.629C294.68 250.679 294.996 250.733 295.312 250.79C295.627 250.848 295.942 250.91 296.256 250.976C296.57 251.041 296.883 251.11 297.195 251.184C306.456 253.442 315.508 260.054 320.438 268.214C320.603 268.487 320.764 268.762 320.922 269.039C321.079 269.316 321.234 269.595 321.385 269.875C321.536 270.156 321.683 270.438 321.827 270.722C321.971 271.007 322.112 271.293 322.249 271.58C322.386 271.868 322.52 272.157 322.65 272.448C322.78 272.739 322.907 273.032 323.03 273.326C323.153 273.62 323.272 273.915 323.387 274.212C323.503 274.509 323.615 274.808 323.724 275.107C323.832 275.407 323.937 275.708 324.038 276.01C324.139 276.312 324.237 276.615 324.33 276.92C324.424 277.225 324.514 277.53 324.6 277.837C324.687 278.144 324.769 278.452 324.848 278.761C324.926 279.069 325.001 279.379 325.072 279.69C325.144 280 325.211 280.312 325.275 280.624C325.338 280.936 325.398 281.249 325.454 281.563C325.51 281.877 325.562 282.191 325.611 282.506C325.659 282.821 325.703 283.137 325.744 283.453C325.784 283.769 325.821 284.085 325.854 284.402C325.887 284.719 325.916 285.037 325.941 285.354C325.966 285.672 325.988 285.99 326.005 286.308C326.022 286.626 326.036 286.945 326.046 287.263C326.055 287.582 326.061 287.9 326.063 288.219C326.065 288.538 326.062 288.856 326.056 289.175C326.05 289.494 326.041 289.812 326.027 290.13C326.013 290.449 325.996 290.767 325.974 291.085C325.953 291.403 325.927 291.721 325.898 292.038C325.869 292.355 325.836 292.672 325.799 292.989C325.762 293.305 325.721 293.621 325.676 293.937C325.632 294.252 325.583 294.567 325.531 294.882C325.479 295.196 325.422 295.51 325.362 295.822C325.302 296.135 325.239 296.448 325.171 296.759C325.103 297.07 325.032 297.381 324.957 297.691C323.852 302.046 322.09 306.708 319.294 310.277C313.273 318.568 303.232 324.688 293.137 326.33C292.827 326.38 292.919 326.364 292.555 326.384C288.455 327.058 284.037 326.622 280.01 325.709Z" fill="#F9AB50"/>
<path d="M336.128 285.339C335.435 276.343 332.103 268.297 326.734 261.122L325.652 259.85C319.226 252.276 311.463 247.057 301.888 244.349C300.421 244.053 298.968 243.799 297.485 243.606L296.996 243.802C297.831 245.932 308.137 251.619 310.616 253.258C312.262 254.348 313.956 255.581 315.438 256.887C318.514 259.599 320.751 263.312 322.736 266.856C330.611 280.912 330.354 293.026 324.003 307.527C317.567 322.22 308.716 324.772 294.92 330.576C293.807 331.044 291.706 331.66 291.012 332.669C291.511 333.075 291.931 333.008 292.556 333.074C294.764 332.889 296.953 332.566 299.121 332.104C311.871 329.351 322.588 322.014 329.59 311.056L330.254 309.872C334.398 302.461 336.13 295.198 336.198 286.736L336.128 285.339Z" fill="#ED7521"/>
<path d="M293.141 326.33C303.236 324.688 313.277 318.568 319.299 310.277C322.094 306.708 323.856 302.046 324.961 297.69C325.036 297.381 325.108 297.07 325.175 296.759C325.243 296.447 325.306 296.135 325.366 295.822C325.427 295.509 325.483 295.196 325.535 294.881C325.587 294.567 325.636 294.252 325.681 293.937C325.725 293.621 325.766 293.305 325.803 292.989C325.84 292.672 325.873 292.355 325.902 292.038C325.932 291.721 325.957 291.403 325.978 291.085C326 290.767 326.017 290.449 326.031 290.13C326.045 289.812 326.054 289.493 326.061 289.175C326.067 288.856 326.069 288.538 326.067 288.219C326.065 287.9 326.059 287.582 326.05 287.263C326.04 286.945 326.027 286.626 326.009 286.308C325.992 285.99 325.971 285.672 325.945 285.354C325.92 285.036 325.891 284.719 325.858 284.402C325.825 284.085 325.789 283.769 325.748 283.453C325.707 283.137 325.663 282.821 325.615 282.506C325.566 282.191 325.514 281.877 325.458 281.563C325.402 281.249 325.343 280.936 325.279 280.624C325.215 280.312 325.148 280 325.077 279.69C325.006 279.379 324.931 279.069 324.852 278.761C324.773 278.452 324.691 278.144 324.604 277.837C324.518 277.53 324.428 277.225 324.334 276.92C324.241 276.615 324.143 276.312 324.042 276.01C323.941 275.707 323.836 275.407 323.728 275.107C323.619 274.807 323.507 274.509 323.392 274.212C323.276 273.915 323.157 273.62 323.034 273.326C322.911 273.032 322.784 272.739 322.654 272.448C322.524 272.157 322.39 271.868 322.254 271.58C322.116 271.293 321.976 271.007 321.831 270.722C321.688 270.438 321.54 270.156 321.389 269.875C321.238 269.594 321.084 269.316 320.926 269.039C320.768 268.762 320.607 268.487 320.442 268.214C315.513 260.054 306.46 253.442 297.2 251.183C296.887 251.11 296.574 251.041 296.26 250.975C295.946 250.91 295.631 250.848 295.316 250.79C295 250.732 294.684 250.678 294.367 250.628C294.05 250.578 293.733 250.532 293.415 250.49C293.097 250.447 292.779 250.409 292.459 250.374C292.141 250.34 291.821 250.309 291.502 250.282C291.182 250.255 290.862 250.232 290.542 250.214C290.221 250.194 289.901 250.179 289.581 250.168C289.26 250.157 288.939 250.15 288.618 250.147C288.297 250.143 287.977 250.144 287.656 250.148C287.335 250.153 287.015 250.162 286.694 250.174C286.374 250.186 286.053 250.203 285.733 250.223C285.413 250.243 285.093 250.267 284.773 250.295C284.454 250.324 284.135 250.356 283.816 250.391C283.497 250.427 283.179 250.467 282.861 250.51C282.543 250.554 282.226 250.602 281.909 250.653C281.593 250.704 281.277 250.76 280.961 250.819C280.646 250.878 280.331 250.941 280.017 251.007C279.704 251.074 279.391 251.145 279.079 251.22C278.767 251.294 278.456 251.372 278.146 251.454C277.836 251.536 277.526 251.622 277.219 251.712C276.911 251.801 276.604 251.895 276.298 251.992C275.992 252.089 275.688 252.19 275.384 252.294C275.081 252.399 274.779 252.507 274.479 252.619C274.178 252.731 273.879 252.847 273.581 252.966C273.283 253.085 272.987 253.208 272.692 253.334C272.397 253.461 272.104 253.591 271.812 253.725C271.521 253.859 271.231 253.996 270.943 254.136C270.654 254.277 270.368 254.421 270.083 254.569C269.798 254.717 269.516 254.868 269.235 255.023C268.953 255.178 268.674 255.336 268.397 255.497C268.12 255.659 267.845 255.824 267.572 255.992C258.911 261.31 253.255 269.846 250.911 279.676C248.526 289.678 250.509 300.06 255.914 308.78C261.068 317.097 270.507 323.556 280.014 325.709C284.041 326.621 288.46 327.058 292.559 326.384C292.924 326.364 292.832 326.38 293.141 326.33ZM286.052 325.683C276.193 325.091 266.452 320.18 259.971 312.745C253.96 305.849 250.066 295.164 250.752 285.992C250.776 285.677 250.803 285.363 250.834 285.048C250.865 284.734 250.9 284.42 250.939 284.106C250.978 283.793 251.021 283.48 251.067 283.168C251.114 282.855 251.164 282.543 251.219 282.232C251.273 281.921 251.331 281.611 251.393 281.301C251.455 280.991 251.521 280.682 251.59 280.374C251.66 280.066 251.733 279.759 251.81 279.452C251.887 279.146 251.968 278.841 252.052 278.537C252.137 278.232 252.225 277.929 252.317 277.627C252.409 277.325 252.505 277.023 252.605 276.724C252.704 276.424 252.807 276.126 252.914 275.828C253.021 275.531 253.131 275.235 253.245 274.941C253.359 274.646 253.477 274.353 253.598 274.061C253.719 273.77 253.844 273.48 253.972 273.191C254.101 272.903 254.233 272.616 254.368 272.33C254.504 272.045 254.643 271.762 254.785 271.48C254.928 271.197 255.074 270.917 255.223 270.639C255.372 270.361 255.525 270.085 255.681 269.81C255.837 269.535 255.997 269.263 256.16 268.992C256.323 268.721 256.489 268.453 256.658 268.186C256.828 267.92 257 267.655 257.176 267.393C257.352 267.131 257.531 266.871 257.714 266.613C257.896 266.355 258.082 266.099 258.27 265.846C258.459 265.593 258.651 265.342 258.846 265.093C259.04 264.845 259.238 264.598 259.439 264.354C259.64 264.111 259.844 263.87 260.051 263.631C260.258 263.392 260.467 263.156 260.68 262.922C260.892 262.689 261.108 262.458 261.326 262.229C261.545 262.001 261.766 261.776 261.99 261.553C262.214 261.33 262.44 261.11 262.669 260.893C262.899 260.675 263.131 260.461 263.365 260.249C263.6 260.038 263.837 259.829 264.076 259.624C271.584 253.23 282.072 250.401 291.81 251.202C301.66 252.012 310.628 257.337 316.891 264.863C323.724 273.074 325.817 283.404 324.813 293.823C323.624 300.055 321.335 305.363 317.845 310.668C310.265 319.175 301.963 324.71 290.296 325.71C288.88 325.746 287.466 325.769 286.052 325.683Z" fill="#F9FBFD"/>
<path d="M317.843 310.668C321.332 305.362 323.621 300.054 324.811 293.822C325.815 283.403 323.722 273.073 316.889 264.862C310.625 257.337 301.658 252.011 291.808 251.201C282.07 250.4 271.582 253.229 264.074 259.623C263.834 259.828 263.597 260.037 263.363 260.248C263.128 260.46 262.896 260.674 262.667 260.892C262.438 261.109 262.211 261.329 261.988 261.552C261.764 261.775 261.543 262 261.324 262.229C261.106 262.457 260.89 262.688 260.678 262.921C260.465 263.155 260.255 263.391 260.049 263.63C259.842 263.869 259.638 264.11 259.437 264.354C259.236 264.598 259.038 264.844 258.843 265.092C258.648 265.341 258.457 265.592 258.268 265.845C258.079 266.098 257.894 266.354 257.712 266.612C257.529 266.87 257.35 267.13 257.174 267.392C256.998 267.654 256.825 267.919 256.656 268.186C256.487 268.452 256.32 268.72 256.158 268.991C255.995 269.262 255.835 269.534 255.679 269.809C255.523 270.084 255.37 270.36 255.221 270.638C255.072 270.917 254.926 271.197 254.783 271.479C254.641 271.761 254.502 272.044 254.366 272.33C254.231 272.615 254.099 272.902 253.97 273.19C253.842 273.479 253.717 273.769 253.596 274.061C253.474 274.352 253.357 274.645 253.243 274.94C253.129 275.234 253.018 275.53 252.912 275.828C252.805 276.125 252.702 276.423 252.602 276.723C252.503 277.023 252.407 277.324 252.315 277.626C252.223 277.928 252.135 278.231 252.05 278.536C251.965 278.84 251.885 279.145 251.808 279.452C251.731 279.758 251.657 280.065 251.588 280.373C251.518 280.681 251.453 280.99 251.391 281.3C251.329 281.61 251.271 281.92 251.217 282.231C251.162 282.542 251.112 282.854 251.065 283.167C251.019 283.479 250.976 283.792 250.937 284.105C250.898 284.419 250.863 284.733 250.832 285.047C250.801 285.362 250.774 285.676 250.75 285.991C250.063 295.163 253.958 305.848 259.969 312.744C266.45 320.18 276.191 325.09 286.05 325.682C287.464 325.768 288.878 325.745 290.294 325.709C301.961 324.709 310.263 319.174 317.843 310.668ZM299.496 301.222C297.811 304.103 295.2 305.081 292.15 305.87C292.182 306.893 292.225 307.92 292.221 308.944C292.218 309.726 292.15 310.66 291.475 311.184C290.709 311.779 289.664 311.449 288.804 311.286C288.455 311.215 287.901 311.155 287.62 310.902C286.786 310.15 287.14 307.513 287.162 306.467C283.329 306.263 280.193 305.357 276.824 303.516C277.2 302.523 277.631 301.553 278.117 300.608C278.603 299.664 279.14 298.75 279.73 297.866C282.418 299.423 286.438 300.543 289.551 300.057C291.184 299.801 292.441 298.885 293.375 297.528C293.854 296.832 294.132 296.056 293.886 295.209C292.884 291.766 285.596 290.29 282.768 288.63C280.292 287.177 278.233 285.104 277.512 282.247C276.913 279.872 277.466 277.027 278.746 274.955C280.622 271.917 283.91 270.671 287.203 269.872C287.201 267.958 286.9 265.739 288.162 264.173C289.584 264.146 290.991 264.348 292.4 264.512L292.31 269.738C293.758 269.906 295.234 270.234 296.646 270.595C297.71 270.867 299.107 271.283 299.599 272.386C300.357 274.084 298.63 276.7 297.867 278.202C294.275 276.485 291.456 275.023 287.382 276.078C286.274 276.365 285.594 277.222 285.05 278.183C284.68 278.839 284.461 279.632 284.79 280.359C286.185 283.436 292.505 284.658 295.334 286.17C297.838 287.51 299.869 289.504 300.639 292.31C301.406 295.105 300.964 298.713 299.496 301.222Z" fill="#F9AB50"/>
<path d="M295.334 286.171C292.506 284.659 286.186 283.437 284.79 280.359C284.461 279.633 284.68 278.839 285.051 278.184C285.595 277.222 286.274 276.366 287.383 276.079C291.456 275.023 294.276 276.486 297.867 278.202C298.63 276.701 300.357 274.085 299.599 272.386C299.107 271.283 297.71 270.868 296.646 270.596C295.234 270.235 293.759 269.907 292.31 269.738L292.4 264.512C290.991 264.348 289.584 264.147 288.163 264.173C286.9 265.74 287.201 267.958 287.203 269.873C283.911 270.672 280.623 271.918 278.746 274.956C277.467 277.028 276.913 279.872 277.513 282.248C278.234 285.105 280.292 287.178 282.768 288.631C285.596 290.29 292.884 291.767 293.886 295.21C294.133 296.056 293.854 296.832 293.375 297.529C292.441 298.886 291.185 299.802 289.551 300.058C286.439 300.544 282.418 299.424 279.73 297.867C279.14 298.75 278.603 299.665 278.117 300.609C277.631 301.554 277.2 302.523 276.824 303.517C280.193 305.358 283.329 306.263 287.162 306.467C287.14 307.514 286.787 310.15 287.62 310.902C287.901 311.156 288.455 311.216 288.804 311.287C289.664 311.449 290.71 311.779 291.476 311.184C292.151 310.66 292.218 309.726 292.221 308.945C292.225 307.921 292.183 306.893 292.151 305.87C295.201 305.081 297.812 304.103 299.497 301.222C300.964 298.714 301.406 295.105 300.639 292.311C299.869 289.504 297.839 287.511 295.334 286.171Z" fill="#F9FBFD"/>
<path d="M133.133 6.34809C133.16 6.51349 133.196 6.67715 133.239 6.83895C133.283 7.00075 133.334 7.1601 133.393 7.31685C133.452 7.47331 133.519 7.6266 133.594 7.77671C134.354 9.32532 135.769 10.3875 137.407 10.8726C138.276 11.1302 139.114 11.0938 140.007 11.0278C141.747 10.2874 143.223 9.47154 143.969 7.6142C144.52 6.24312 144.346 4.68384 143.698 3.3775C143.608 3.201 143.51 3.02925 143.404 2.8624C143.297 2.69513 143.183 2.53362 143.061 2.37788C142.939 2.222 142.81 2.07231 142.673 1.92883C142.537 1.78564 142.394 1.64921 142.244 1.51972C142.094 1.39022 141.938 1.26837 141.776 1.15431C141.615 1.0401 141.448 0.933817 141.275 0.835615C141.103 0.737556 140.927 0.648156 140.746 0.567257C140.566 0.486359 140.381 0.414397 140.194 0.351524C139.244 0.036872 138.28 0.0570673 137.294 0.100761C135.481 0.932383 134.043 1.90648 133.347 3.87313C133.292 4.03132 133.245 4.19182 133.206 4.35463C133.167 4.51758 133.136 4.68211 133.113 4.84823C133.09 5.01421 133.076 5.1809 133.07 5.34803C133.064 5.5156 133.066 5.68302 133.077 5.85016C133.087 6.01671 133.106 6.18298 133.133 6.34809Z" fill="#44BBDB"/>
<path d="M341.797 183.055C343.202 181.109 344.858 179.42 346.339 177.547C337.742 169.17 328.503 164.169 316.295 163.961C312.39 170.617 312.702 181.743 314.614 188.986C317.002 198.033 321.259 203.8 327.278 210.705L332.052 210.711C333.429 200.602 335.703 191.499 341.797 183.055Z" fill="#F9AB50"/>
<path d="M341.8 183.055C335.705 191.499 333.432 200.602 332.055 210.712L351.432 210.735C354.794 210.744 358.303 210.587 361.652 210.837C364.282 208.161 366.659 205.272 368.524 202.004C374.079 192.27 374.722 180.592 371.865 169.954C371.02 167.899 370.195 165.875 369.098 163.937C365.585 165.193 362.089 166.442 358.702 168.015C354.056 170.578 350.07 173.78 346.342 177.547C344.86 179.42 343.205 181.109 341.8 183.055Z" fill="#ED7521"/>
<path d="M246.463 271.043C249.717 262.762 256.183 254.686 263.732 249.929C266.091 248.443 268.653 247.371 271.198 246.254L271.384 122.322L271.322 100.462C271.332 96.1811 271.883 90.1396 270.983 86.0769C270.924 85.8096 270.855 85.5448 270.777 85.2826C270.699 85.0205 270.611 84.7612 270.515 84.5049C270.418 84.249 270.312 83.9968 270.197 83.7485C270.082 83.5003 269.958 83.2566 269.825 83.0171C269.692 82.7775 269.551 82.5432 269.401 82.3141C269.252 82.0848 269.094 81.8613 268.929 81.6434C268.763 81.4255 268.59 81.2138 268.409 81.0082C268.228 80.8028 268.04 80.6042 267.845 80.4126C266.356 78.9305 264.565 77.581 262.494 77.07C259.086 76.228 254.728 76.7351 251.185 76.7396L231.359 76.8196C231.196 79.5612 230.971 82.1289 229.439 84.5127C228.279 86.3197 226.191 87.6885 224.067 88.0715C221.953 88.4522 219.473 88.2293 217.323 88.2365L205.736 88.3017L186.358 88.3573C182.867 88.3646 179.183 88.6019 175.716 88.2206C173.886 88.0198 172.474 87.6466 170.962 86.5332C167.635 84.0837 167.058 80.5141 166.442 76.7188L149.842 76.7193C146.41 76.7067 142.278 76.2585 138.935 77.0339C136.791 77.5311 134.989 78.5375 133.436 80.0942C131.528 82.0078 129.962 84.5642 129.495 87.2506C128.961 90.3262 129.209 93.6153 129.216 96.7287L129.215 111.697L129.288 172.276C130.185 172.312 131.081 172.36 131.976 172.42C132.769 172.774 133.485 173.091 133.861 173.935C134.6 175.594 130.001 201.791 129.541 205.537C129.234 208.031 129.157 210.577 129.172 213.089C129.336 215.325 129.58 217.604 129.159 219.825L129.37 280.079L129.336 298.829C129.321 302.487 129.087 306.302 129.489 309.935C129.708 311.909 130.421 314.564 131.863 315.978C132.913 317.008 134.247 317.252 135.662 317.358C140.708 317.736 145.947 317.475 151.01 317.476L179.99 317.477L230.648 317.531C238.639 317.55 246.642 317.731 254.632 317.643C251.575 314.007 248.753 309.912 246.855 305.552C242.148 294.739 242.17 281.968 246.463 271.043ZM158.935 196.27C158.939 195.96 158.948 195.65 158.96 195.34C158.973 195.03 158.989 194.721 159.009 194.411C159.029 194.102 159.053 193.793 159.081 193.484C159.108 193.175 159.14 192.866 159.175 192.558C160.345 182.175 165.398 172.368 173.669 165.857C181.727 159.513 191.984 157.398 202.016 158.587L201.985 152.667C201.917 144.159 201.675 135.568 201.963 127.066C219.499 127.08 234.784 132.533 247.329 145.046C255.312 153.009 261.404 164.068 263.512 175.204C264.381 179.795 264.575 184.465 264.629 189.127C256.276 189.128 247.904 189.007 239.554 189.146L237.11 189.165C237.494 192.989 237.725 196.795 237.359 200.632C236.346 211.27 230.641 219.672 222.551 226.34C214.571 232.916 204.495 235.704 194.237 234.649C183.941 233.59 173.749 228.56 167.224 220.421C167.029 220.179 166.838 219.935 166.65 219.688C166.462 219.442 166.277 219.193 166.095 218.942C165.913 218.691 165.734 218.437 165.559 218.182C165.383 217.926 165.21 217.668 165.041 217.409C164.871 217.149 164.705 216.887 164.543 216.623C164.38 216.359 164.22 216.093 164.064 215.825C163.907 215.557 163.754 215.288 163.605 215.016C163.455 214.744 163.309 214.471 163.166 214.196C163.023 213.92 162.884 213.643 162.748 213.365C162.611 213.086 162.479 212.806 162.35 212.524C162.221 212.242 162.095 211.959 161.973 211.673C161.851 211.388 161.732 211.102 161.617 210.814C161.502 210.526 161.39 210.236 161.283 209.946C161.175 209.655 161.07 209.363 160.97 209.07C160.869 208.776 160.772 208.482 160.679 208.186C160.585 207.89 160.496 207.593 160.41 207.295C160.324 206.997 160.241 206.699 160.162 206.399C160.084 206.098 160.009 205.798 159.938 205.496C159.866 205.194 159.799 204.891 159.735 204.588C159.671 204.284 159.611 203.98 159.555 203.675C159.499 203.37 159.446 203.065 159.398 202.758C159.349 202.452 159.304 202.145 159.263 201.838C159.222 201.53 159.184 201.222 159.151 200.914C159.117 200.606 159.088 200.297 159.062 199.988C159.036 199.679 159.014 199.37 158.996 199.06C158.978 198.75 158.963 198.441 158.952 198.131C158.942 197.821 158.935 197.51 158.932 197.2C158.929 196.891 158.93 196.58 158.935 196.27ZM152.253 263.287C152.323 261.961 153.112 261.026 154.025 260.148C159.494 259.813 165.16 260.103 170.65 260.106C176.402 260.108 182.312 259.828 188.047 260.153C189.314 260.225 190.66 260.352 191.524 261.409C192.088 262.099 192.225 262.984 192.089 263.845C191.898 265.054 191.232 265.73 190.259 266.394C187.556 267.201 179.299 266.71 176.075 266.708C168.741 266.702 161.348 266.885 154.021 266.591C153.741 266.367 153.476 266.127 153.225 265.871C152.529 265.16 152.199 264.287 152.253 263.287ZM214.496 277.88C214.283 279.193 213.422 279.931 212.417 280.698C210.55 281.067 208.314 280.865 206.402 280.864L195.122 280.849C182.642 280.829 170.122 281.057 157.648 280.812C156.164 280.783 153.447 280.815 152.459 279.545C152.007 278.965 151.843 278.313 151.946 277.592C152.155 276.148 152.915 275.128 154.072 274.302C167.442 274.247 180.811 274.265 194.181 274.356C197.603 274.389 201.025 274.397 204.447 274.382C206.616 274.367 208.859 274.219 211.016 274.423C212.15 274.53 213.303 274.899 214.028 275.838C214.486 276.431 214.614 277.155 214.496 277.88ZM242.5 264.914C242.277 265.899 241.436 266.504 240.623 266.991C237.879 267.221 235.037 267.078 232.283 267.074L216.883 267.009C212.508 266.987 205.119 267.409 201.05 266.818C200.233 266.7 199.615 266.295 199.16 265.612C198.62 264.803 198.706 263.624 198.924 262.728C199.227 261.479 199.788 261.02 200.863 260.38C206.077 260.093 211.424 260.306 216.654 260.317C223.867 260.332 231.102 260.232 238.312 260.365C239.613 260.388 241.178 260.347 242.072 261.464C242.818 262.397 242.748 263.816 242.5 264.914Z" fill="#F9FBFD"/>
<path d="M154.024 266.59C161.351 266.885 168.744 266.701 176.078 266.707C179.302 266.71 187.559 267.2 190.262 266.393C191.235 265.73 191.901 265.054 192.092 263.845C192.228 262.984 192.091 262.098 191.527 261.409C190.663 260.352 189.317 260.225 188.05 260.153C182.315 259.828 176.405 260.107 170.653 260.105C165.163 260.103 159.497 259.813 154.028 260.147C153.115 261.025 152.326 261.961 152.256 263.287C152.202 264.287 152.532 265.16 153.228 265.871C153.479 266.127 153.744 266.366 154.024 266.59Z" fill="#B2D9F7"/>
<path d="M238.315 260.364C231.105 260.232 223.87 260.332 216.657 260.317C211.427 260.305 206.08 260.093 200.866 260.379C199.791 261.02 199.23 261.479 198.927 262.728C198.709 263.624 198.623 264.803 199.162 265.612C199.618 266.294 200.235 266.699 201.052 266.818C205.122 267.408 212.51 266.986 216.886 267.009L232.285 267.074C235.04 267.077 237.882 267.221 240.625 266.991C241.439 266.503 242.28 265.899 242.503 264.913C242.75 263.816 242.82 262.396 242.075 261.464C241.181 260.346 239.615 260.388 238.315 260.364Z" fill="#B2D9F7"/>
<path d="M211.017 274.423C208.861 274.219 206.617 274.367 204.449 274.382C201.026 274.397 197.604 274.389 194.182 274.356C180.813 274.264 167.443 274.247 154.074 274.302C152.916 275.128 152.156 276.148 151.948 277.592C151.844 278.313 152.008 278.965 152.46 279.545C153.448 280.815 156.165 280.783 157.65 280.812C170.123 281.057 182.643 280.829 195.123 280.849L206.403 280.863C208.315 280.865 210.552 281.067 212.419 280.698C213.423 279.931 214.285 279.193 214.498 277.88C214.615 277.154 214.488 276.431 214.03 275.838C213.305 274.899 212.152 274.53 211.017 274.423Z" fill="#B2D9F7"/>
<path d="M129.217 111.697L129.217 96.7291C129.211 93.6157 128.962 90.3266 129.497 87.251C129.963 84.5646 131.529 82.0083 133.437 80.0946C134.99 78.5379 136.793 77.5314 138.936 77.0343C142.279 76.2589 146.411 76.7071 149.844 76.7197L166.444 76.7192C167.059 80.5145 167.636 84.0841 170.963 86.5336C172.476 87.647 173.887 88.0202 175.718 88.221C179.184 88.6022 182.868 88.365 186.36 88.3578L205.737 88.3021L217.324 88.2369C219.474 88.2297 221.955 88.4526 224.068 88.0719C226.192 87.6889 228.28 86.3202 229.441 84.5131C230.972 82.1293 231.197 79.5616 231.361 76.82L251.187 76.74C254.73 76.7355 259.088 76.2285 262.496 77.0704C264.566 77.5814 266.358 78.9309 267.846 80.413C268.041 80.6048 268.229 80.8033 268.41 81.0085C268.591 81.2142 268.765 81.4259 268.93 81.6438C269.096 81.8617 269.253 82.0852 269.403 82.3145C269.552 82.5437 269.694 82.7781 269.826 83.0175C269.959 83.257 270.083 83.5007 270.198 83.7489C270.313 83.9973 270.419 84.2495 270.516 84.5053C270.613 84.7616 270.7 85.0207 270.779 85.283C270.857 85.5453 270.925 85.81 270.984 86.0773C271.884 90.1401 271.334 96.1817 271.324 100.462L271.386 122.322L271.2 246.255C273.181 245.4 275.215 244.604 277.303 244.056C276.858 206.241 277.256 168.398 277.178 130.579C277.145 120.895 277.163 111.211 277.235 101.527C277.249 96.3794 277.668 90.7941 276.974 85.7015C276.459 81.913 274.753 78.533 272.079 75.8018C268.334 71.9772 264.291 71.0095 259.071 70.9708L175.184 70.9169L151.18 70.933C147.055 70.9371 142.389 70.5451 138.327 71.2311C134.853 71.8177 131.484 73.6077 129 76.0913C126.417 78.6739 124.482 82.3015 123.822 85.9008C123.191 89.3356 123.477 93.1596 123.491 96.6489L123.563 113.72L123.504 172.499C126.314 172.507 129.176 172.614 131.978 172.421C131.083 172.36 130.187 172.312 129.29 172.277L129.217 111.697ZM206.793 79.6513C207.2 78.7248 207.897 78.4376 208.778 78.0781C209.222 78.1073 209.687 78.1292 210.121 78.2286C210.788 78.3815 211.431 78.9501 211.744 79.5515C211.783 79.6265 211.817 79.7032 211.847 79.7821C211.877 79.861 211.903 79.9413 211.923 80.0231C211.944 80.1048 211.961 80.1876 211.972 80.2712C211.983 80.3549 211.99 80.439 211.992 80.5235C211.994 80.608 211.99 80.6922 211.982 80.7761C211.974 80.86 211.962 80.9434 211.944 81.026C211.927 81.1088 211.905 81.1901 211.878 81.2701C211.851 81.3502 211.82 81.4283 211.784 81.5048C211.359 82.4349 210.657 82.7252 209.765 83.0678C209.218 83.0444 208.608 83.0485 208.102 82.8205C207.544 82.5693 207.015 82.0194 206.77 81.4606C206.514 80.8739 206.537 80.2339 206.793 79.6513ZM192.528 80.5858C192.604 79.9174 193.117 79.43 193.564 78.9805C196.051 78.9508 202.701 78.2195 204.59 80.0724C204.876 80.3529 204.794 80.4981 204.811 80.869C204.452 81.5144 204.164 81.8633 203.605 82.3448C201.653 82.4225 194.491 82.9413 193.068 81.7622C192.672 81.4335 192.467 81.1199 192.528 80.5858Z" fill="#3455B4"/>
<path d="M208.102 82.8206C208.609 83.0485 209.219 83.0444 209.766 83.0679C210.658 82.7254 211.36 82.435 211.785 81.5048C211.82 81.4284 211.852 81.3503 211.879 81.2702C211.905 81.1902 211.927 81.1089 211.945 81.0261C211.962 80.9435 211.975 80.8601 211.983 80.7762C211.991 80.6923 211.994 80.608 211.992 80.5235C211.991 80.439 211.984 80.355 211.973 80.2713C211.961 80.1877 211.945 80.1051 211.924 80.0231C211.903 79.9414 211.878 79.8611 211.848 79.7822C211.818 79.7033 211.783 79.6266 211.744 79.5516C211.431 78.9501 210.788 78.3815 210.121 78.2287C209.687 78.1293 209.222 78.1073 208.778 78.0781C207.898 78.4378 207.201 78.725 206.794 79.6514C206.537 80.234 206.515 80.8741 206.771 81.4607C207.015 82.0195 207.544 82.5694 208.102 82.8206Z" fill="#F9FBFD"/>
<path d="M193.066 81.761C194.489 82.9402 201.651 82.4214 203.603 82.3436C204.162 81.8621 204.45 81.5133 204.809 80.8678C204.793 80.497 204.874 80.3517 204.588 80.0713C202.7 78.2184 196.049 78.9498 193.562 78.9793C193.115 79.4288 192.603 79.9161 192.526 80.5846C192.466 81.1188 192.67 81.4324 193.066 81.761Z" fill="#F9FBFD"/>
<path d="M229.101 162.78L228.088 161.777C222.576 167.819 217.327 174.05 212.047 180.294C209.433 183.384 206.72 186.394 204.172 189.539C204.955 189.477 205.676 189.297 206.436 189.104C208.281 186.065 213.65 180.72 216.173 177.841C220.529 172.871 224.628 167.64 229.101 162.78Z" fill="#142E8D"/>
<path d="M340.387 72.458H330.484V131H340.387V72.458Z" fill="#3455B4"/>
<path d="M383.598 71.3369H373.695V131H383.598V71.3369Z" fill="#3455B4"/>
<path d="M311.578 104.532H301.676V131H311.578V104.532Z" fill="#3455B4"/>
<path fill-rule="evenodd" clip-rule="evenodd" d="M316.078 94.4924H325.975V131H316.078V94.4924ZM344.887 75.8203H354.784V130.999H344.887V75.8203ZM359.292 81.3586H369.189V130.999H359.292V81.3586ZM388.102 59H397.999V130.999H388.102V59Z" fill="#66B0E8"/>
<path d="M331.916 97.0823L301 125.7L302.594 127.411L332.681 99.5612L355.667 122.593L390.955 87.4134L394.458 90.9056L398 78.7383L385.796 82.2706L389.298 85.7616L355.67 119.286L332.746 96.3148L331.916 97.0823Z" fill="#F79646"/>
<path d="M258.901 228.092C258.891 232.298 255.475 235.702 251.266 235.7L225.317 235.688H167.448C163.233 235.688 159.816 232.273 159.816 228.062V124.694C159.816 120.483 163.233 117.068 167.448 117.068H251.333C255.549 117.068 258.965 120.483 258.965 124.694V215.049L258.901 228.092Z" fill="#EAEDFF"/>
<g filter="url(#filter0_d_1072_446)">
<path d="M251.085 217.024C251.075 221.23 247.659 224.634 243.449 224.632L217.5 224.619H159.632C155.417 224.619 152 221.205 152 216.993V113.626C152 109.414 155.417 106 159.632 106H243.517C247.732 106 251.149 109.414 251.149 113.626V203.981L251.085 217.024Z" fill="white"/>
</g>
<g opacity="0.48">
<path d="M222.05 204.023H181.095C180.354 204.023 179.754 203.423 179.754 202.683C179.754 201.943 180.354 201.343 181.095 201.343H222.05C222.791 201.343 223.391 201.943 223.391 202.683C223.391 203.423 222.791 204.023 222.05 204.023Z" fill="#7D7D7D"/>
<path d="M215.654 211.371H187.493C186.753 211.371 186.152 210.771 186.152 210.031C186.152 209.29 186.753 208.69 187.493 208.69H215.654C216.395 208.69 216.995 209.29 216.995 210.031C216.995 210.771 216.395 211.371 215.654 211.371Z" fill="#7D7D7D"/>
</g>
<path d="M235.537 191.605H168.416C165.386 191.605 162.93 189.151 162.93 186.123V122.145C162.93 119.117 165.386 116.663 168.416 116.663H235.537C238.567 116.663 241.023 119.117 241.023 122.145V186.123C241.023 189.151 238.567 191.605 235.537 191.605Z" fill="#D5EDED"/>
<mask id="mask0_1072_446" style="mask-type:luminance" maskUnits="userSpaceOnUse" x="161" y="112" width="84" height="80">
<path d="M244.328 112.211H161.594V191.606H244.328V112.211Z" fill="white"/>
</mask>
<g mask="url(#mask0_1072_446)">
<path d="M231.903 196.062L225.497 197.267C210.216 200.143 194.531 200.143 179.249 197.267L172.844 196.062L177.06 179.876C178.066 176.013 181.284 173.123 185.235 172.533L188.334 172.071C197.642 170.683 207.105 170.683 216.413 172.071L219.511 172.533C223.463 173.123 226.68 176.013 227.687 179.876L231.903 196.062Z" fill="#E0284D"/>
<path d="M187.703 178.43C187.703 178.43 187.703 165.133 202.376 165.133C217.05 165.133 217.05 169.224 217.05 169.224L219.78 151.835H182.926L187.703 178.43Z" fill="#332009"/>
<path d="M209.392 172.61L209.364 172.638C205.49 176.497 199.218 176.485 195.359 172.61L196.437 163.824H208.315L209.392 172.61Z" fill="#FAD5A8"/>
<path opacity="0.68" d="M207.942 160.781C206.273 161.346 204.385 161.667 202.376 161.667C200.367 161.667 198.479 161.346 196.81 160.781L195.898 168.217C197.778 168.942 204.434 170.502 209.047 169.792L207.942 160.781Z" fill="#FAD5A8"/>
<path d="M202.376 167.177C194.273 167.177 187.703 160.613 187.703 152.516V140.453C187.703 134.436 192.585 129.558 198.608 129.558H206.145C212.168 129.558 217.05 134.436 217.05 140.453V152.516C217.05 160.613 210.48 167.177 202.376 167.177Z" fill="#FAD5A8"/>
<path opacity="0.68" d="M192.191 155.138C193.365 145.278 196.34 137.357 206.682 132.661L206.944 132.418L200.313 125.335L184.848 141.965L192.191 155.138Z" fill="#FAD5A8"/>
<path opacity="0.68" d="M214.284 155.137C213.437 159.946 211.698 163.051 209.422 165.379C213.967 162.887 217.048 158.061 217.048 152.516V129.558C217.048 129.558 213.64 131.841 214.443 140.077C214.905 144.819 214.961 148.717 214.686 151.968L214.284 155.137Z" fill="#FAD5A8"/>
<path d="M185.172 181.101L187.703 150.637L190.989 156.229L191.447 154.61C188.679 140.348 196.93 133.015 210.873 132.241L214.202 140.932C215.018 143.064 215.662 145.254 216.13 147.479C217.138 152.281 216.708 157.274 215.041 161.889L211.168 172.611C219.524 167.128 224.557 157.809 224.557 147.82V142.117C224.557 129.877 214.626 119.954 202.376 119.954C190.126 119.954 180.195 129.877 180.195 142.117V148.87C180.195 158.791 181.589 168.663 184.335 178.196L185.172 181.101Z" fill="#422C10"/>
</g>
</g>
<defs>
<filter id="filter0_d_1072_446" x="120" y="78" width="163.149" height="182.632" filterUnits="userSpaceOnUse" color-interpolation-filters="sRGB">
<feFlood flood-opacity="0" result="BackgroundImageFix"/>
<feColorMatrix in="SourceAlpha" type="matrix" values="0 0 0 0 0 0 0 0 0 0 0 0 0 0 0 0 0 0 127 0" result="hardAlpha"/>
<feOffset dy="4"/>
<feGaussianBlur stdDeviation="16"/>
<feComposite in2="hardAlpha" operator="out"/>
<feColorMatrix type="matrix" values="0 0 0 0 0 0 0 0 0 0 0 0 0 0 0 0 0 0 0.08 0"/>
<feBlend mode="normal" in2="BackgroundImageFix" result="effect1_dropShadow_1072_446"/>
<feBlend mode="normal" in="SourceGraphic" in2="effect1_dropShadow_1072_446" result="shape"/>
</filter>
<linearGradient id="paint0_linear_1072_446" x1="51.2167" y1="318.902" x2="47.3936" y2="342.002" gradientUnits="userSpaceOnUse">
<stop stop-color="#06247A"/>
<stop offset="1" stop-color="#1638AE"/>
</linearGradient>
<linearGradient id="paint1_linear_1072_446" x1="129.231" y1="381.894" x2="332.521" y2="229.088" gradientUnits="userSpaceOnUse">
<stop stop-color="#112B93"/>
<stop offset="1" stop-color="#436AC4"/>
</linearGradient>
<clipPath id="clip0_1072_446">
<rect width="412.562" height="334.924" fill="white" transform="translate(0 0.0761719)"/>
</clipPath>
</defs>
</svg>
